<?xml version="1.0" standalone="no"?>
<!DOCTYPE svg PUBLIC "-//W3C//DTD SVG 20010904//EN"
 "http://www.w3.org/TR/2001/REC-SVG-20010904/DTD/svg10.dtd">
<svg version="1.0" xmlns="http://www.w3.org/2000/svg"
 width="70.000000pt" height="70.000000pt" viewBox="0 0 70.000000 70.000000"
 preserveAspectRatio="xMidYMid meet">
<metadata>
Created by potrace 1.11, written by Peter Selinger 2001-2013
</metadata>
<g transform="translate(0.000000,70.000000) scale(0.100000,-0.100000)"
fill="#000000" stroke="none">
<path d="M0 350 l0 -350 350 0 350 0 0 350 0 350 -350 0 -350 0 0 -350z m217
243 c3 -7 -9 -13 -29 -15 -27 -2 -33 -7 -33 -27 0 -16 8 -27 23 -32 20 -8 22
-6 17 11 -5 16 -2 20 15 20 17 0 21 -5 18 -27 -2 -22 -9 -29 -31 -31 -56 -7
-88 58 -50 100 18 20 64 21 70 1z m188 -101 c-3 -3 -11 0 -17 6 -7 7 -21 12
-33 12 -12 0 -26 -5 -33 -12 -24 -24 -22 1 5 56 l27 57 29 -57 c16 -31 26 -59
22 -62z m152 106 c12 -21 12 -92 0 -100 -7 -4 -24 -8 -39 -8 -27 0 -28 1 -28
60 0 60 0 60 29 60 17 0 33 -6 38 -12z m-347 -203 c11 -13 11 -20 0 -39 -9
-18 -9 -29 -1 -45 9 -17 9 -21 -2 -21 -8 0 -19 12 -26 26 -11 24 -24 26 -27 3
-1 -5 -2 -13 -3 -19 0 -5 -5 -10 -11 -10 -6 0 -10 27 -10 60 l0 60 34 0 c18 0
39 -7 46 -15z m160 -45 c0 -47 -3 -60 -15 -60 -12 0 -15 13 -15 60 0 47 3 60
15 60 12 0 15 -13 15 -60z m200 50 c0 -5 -11 -10 -25 -10 -16 0 -25 -6 -25
-15 0 -8 9 -15 20 -15 11 0 20 -4 20 -10 0 -5 -9 -10 -20 -10 -28 0 -25 -17 5
-24 39 -10 30 -28 -12 -24 -38 3 -38 3 -39 48 0 25 2 51 4 58 5 14 72 17 72 2z
m-402 -243 c3 -39 6 -47 23 -47 10 0 19 -4 19 -10 0 -5 -16 -10 -35 -10 l-35
0 0 61 c0 74 23 79 28 6z m177 2 c0 -38 3 -44 23 -47 35 -5 26 -22 -13 -22
l-35 0 0 61 c0 43 4 59 12 57 7 -3 12 -23 13 -49z m231 -68 c-5 -2 -12 1 -14
8 -5 15 -45 14 -60 -1 -24 -24 -22 1 4 55 l27 55 27 -56 c16 -34 23 -59 16
-61z"/>
<path d="M346 545 c-3 -9 0 -15 9 -15 9 0 12 6 9 15 -4 8 -7 15 -9 15 -2 0 -5
-7 -9 -15z"/>
<path d="M520 575 c0 -8 5 -15 10 -15 6 0 10 7 10 15 0 8 -4 15 -10 15 -5 0
-10 -7 -10 -15z"/>
<path d="M520 525 c0 -9 5 -15 11 -13 6 2 11 8 11 13 0 5 -5 11 -11 13 -6 2
-11 -4 -11 -13z"/>
<path d="M155 380 c-8 -12 20 -24 35 -15 6 3 8 11 5 16 -8 12 -32 12 -40 -1z"/>
<path d="M525 140 c-3 -5 -1 -10 4 -10 6 0 11 5 11 10 0 6 -2 10 -4 10 -3 0
-8 -4 -11 -10z"/>
</g>
</svg>
